<svg width="14" height="15" viewBox="0 0 14 15" fill="none" xmlns="http://www.w3.org/2000/svg">
<g clip-path="url(#clip0_1_13933)">
<path fill-rule="evenodd" clip-rule="evenodd" d="M12.2895 0.0664062C13.2336 0.0664062 14 0.831933 14 1.77482V12.3412C14 13.2841 13.2336 14.0496 12.2895 14.0496H9.3783V8.78093H11.1994L11.5459 6.52447H9.3783V5.06013C9.3783 4.44282 9.68108 3.84108 10.652 3.84108H11.6375V1.92003C11.6375 1.92003 10.7431 1.76758 9.88799 1.76758C8.10277 1.76758 6.93596 2.84825 6.93596 4.80467V6.52447H4.95154V8.78093H6.93596V14.0496H1.71046C0.766445 14.0496 0 13.2841 0 12.3412V1.77482C0 0.831933 0.766418 0.0664063 1.71046 0.0664063H12.2895V0.0664062Z" fill="#071328"/>
</g>
<defs>
<clipPath id="clip0_1_13933">
<rect width="14" height="13.9832" fill="white" transform="translate(0 0.0664062)"/>
</clipPath>
</defs>
</svg>
