<svg width="16" height="17" viewBox="0 0 16 17" fill="none" xmlns="http://www.w3.org/2000/svg">
<path d="M8.00003 0.0683594C5.82734 0.0683594 5.5549 0.0775671 4.70161 0.116458C3.85011 0.155256 3.26854 0.290313 2.75967 0.487858C2.2336 0.692051 1.78744 0.965287 1.34272 1.40951C0.897972 1.85369 0.624409 2.29932 0.41997 2.82475C0.222188 3.33299 0.0869691 3.91386 0.0481252 4.76434C0.00918753 5.6166 0 5.88871 0 8.05881C0 10.2288 0.00918753 10.501 0.0481252 11.3532C0.0869691 12.2037 0.222188 12.7846 0.41997 13.2928C0.624409 13.8182 0.897972 14.2639 1.34272 14.7081C1.78744 15.1523 2.2336 15.4255 2.75967 15.6297C3.26854 15.8272 3.85011 15.9623 4.70161 16.0011C5.5549 16.04 5.82734 16.0492 8.00003 16.0492C10.1727 16.0492 10.4451 16.04 11.2984 16.0011C12.1499 15.9623 12.7315 15.8272 13.2403 15.6297C13.7664 15.4255 14.2125 15.1523 14.6573 14.7081C15.102 14.2639 15.3756 13.8182 15.58 13.2928C15.7778 12.7846 15.913 12.2037 15.9519 11.3532C15.9908 10.501 16 10.2288 16 8.05881C16 5.88871 15.9908 5.6166 15.9519 4.76434C15.913 3.91386 15.7778 3.33299 15.58 2.82475C15.3756 2.29932 15.102 1.85369 14.6573 1.40951C14.2125 0.965287 13.7664 0.692051 13.2403 0.487858C12.7315 0.290313 12.1499 0.155256 11.2984 0.116458C10.4451 0.0775671 10.1727 0.0683594 8.00003 0.0683594V0.0683594ZM8.00003 1.50811C10.1361 1.50811 10.3891 1.51622 11.2327 1.55468C12.0127 1.59023 12.4363 1.72038 12.7182 1.82979C13.0916 1.97474 13.3581 2.1479 13.638 2.42751C13.918 2.70711 14.0913 2.97332 14.2365 3.34625C14.346 3.62782 14.4763 4.05091 14.5119 4.82995C14.5504 5.67254 14.5586 5.92526 14.5586 8.05881C14.5586 10.1923 14.5504 10.4451 14.5119 11.2876C14.4763 12.0666 14.346 12.4897 14.2365 12.7713C14.0913 13.1443 13.918 13.4104 13.638 13.69C13.3581 13.9697 13.0916 14.1428 12.7182 14.2878C12.4363 14.3972 12.0127 14.5274 11.2327 14.5629C10.3893 14.6013 10.1363 14.6095 8.00003 14.6095C5.86374 14.6095 5.6108 14.6013 4.7673 14.5629C3.98733 14.5274 3.56373 14.3972 3.28183 14.2878C2.90842 14.1428 2.64192 13.9697 2.36195 13.69C2.08201 13.4104 1.90863 13.1443 1.76354 12.7713C1.65398 12.4897 1.52366 12.0666 1.48807 11.2876C1.44957 10.4451 1.44144 10.1923 1.44144 8.05881C1.44144 5.92526 1.44957 5.67254 1.48807 4.82995C1.52366 4.05091 1.65398 3.62782 1.76354 3.34625C1.90863 2.97332 2.08201 2.70711 2.36195 2.42751C2.64192 2.1479 2.90842 1.97474 3.28183 1.82979C3.56373 1.72038 3.98733 1.59023 4.7673 1.55468C5.6109 1.51622 5.86393 1.50811 8.00003 1.50811Z" fill="#071328"/>
<path d="M8.0007 10.7218C6.52792 10.7218 5.33402 9.52929 5.33402 8.05832C5.33402 6.58729 6.52792 5.3948 8.0007 5.3948C9.47342 5.3948 10.6673 6.58729 10.6673 8.05832C10.6673 9.52929 9.47342 10.7218 8.0007 10.7218ZM8.0007 3.95508C5.73183 3.95508 3.89258 5.79214 3.89258 8.05832C3.89258 10.3244 5.73183 12.1615 8.0007 12.1615C10.2695 12.1615 12.1088 10.3244 12.1088 8.05832C12.1088 5.79214 10.2695 3.95508 8.0007 3.95508Z" fill="#071328"/>
<path d="M13.2306 3.79283C13.2306 4.32243 12.8008 4.75171 12.2706 4.75171C11.7404 4.75171 11.3105 4.32243 11.3105 3.79283C11.3105 3.26326 11.7404 2.83398 12.2706 2.83398C12.8008 2.83398 13.2306 3.26326 13.2306 3.79283Z" fill="#071328"/>
</svg>
