<svg width="16" height="17" viewBox="0 0 16 17" fill="none" xmlns="http://www.w3.org/2000/svg">
<path d="M15.0002 3.85554C14.4559 4.63389 13.7768 5.30889 12.9949 5.84875L12.9949 5.84874C12.9454 7.21403 12.5464 8.54387 11.8359 9.71131C11.1255 10.8787 10.1273 11.8448 8.93662 12.5173C7.74597 13.1898 6.40263 13.5462 5.03482 13.5525C3.66701 13.5589 2.3204 13.215 1.12354 12.5536L1.12394 12.5529C2.68684 12.5313 4.20879 12.0506 5.49999 11.1708L5.49995 11.1708C4.11776 10.2299 3.06505 8.88054 2.48939 7.31191C1.91373 5.74328 1.84399 4.03404 2.28995 2.42383L2.28993 2.42384C2.92866 3.40633 3.77588 4.2365 4.77158 4.85555C5.76728 5.4746 6.88709 5.86739 8.05169 6.00608L8.05151 6.00611C7.92887 5.42219 8.01957 4.81371 8.30718 4.29079C8.5948 3.76788 9.06033 3.36507 9.61952 3.15527C10.1787 2.94548 10.7946 2.94255 11.3558 3.14703C11.917 3.35151 12.3863 3.74988 12.6789 4.27005L12.6789 4.27032C13.4689 4.24678 14.2511 4.10701 15.0002 3.85554" stroke="#071328" stroke-width="1.5" stroke-linecap="round" stroke-linejoin="round"/>
</svg>
