<svg width="16" height="17" viewBox="0 0 16 17" fill="none" xmlns="http://www.w3.org/2000/svg">
<g clip-path="url(#clip0_1_13927)">
<path d="M15.6656 4.21166C15.4816 3.52404 14.9395 2.9826 14.2511 2.79885C13.0032 2.46484 7.99994 2.46484 7.99994 2.46484C7.99994 2.46484 2.99666 2.46484 1.74875 2.79885C1.06047 2.9826 0.51825 3.52404 0.33425 4.21166C0 5.45791 0 8.05817 0 8.05817C0 8.05817 0 10.6584 0.33425 11.9046C0.51825 12.5922 1.06047 13.1337 1.74875 13.3175C2.99666 13.6514 7.99994 13.6514 7.99994 13.6514C7.99994 13.6514 13.0032 13.6514 14.2511 13.3175C14.9395 13.1337 15.4816 12.5922 15.6656 11.9046C16 10.6584 16 8.05817 16 8.05817C16 8.05817 16 5.45791 15.6656 4.21166Z" fill="#071328"/>
<path d="M6.40039 10.4545L10.5572 8.05731L6.40039 5.66016V10.4545Z" fill="white"/>
</g>
<defs>
<clipPath id="clip0_1_13927">
<rect width="16" height="15.9808" fill="white" transform="translate(0 0.0683594)"/>
</clipPath>
</defs>
</svg>
